<mxfile host="app.diagrams.net" modified="2023-09-19T23:32:25.650Z" agent="Mozilla/5.0 (Windows NT 10.0; Win64; x64) AppleWebKit/537.36 (KHTML, like Gecko) Chrome/116.0.0.0 Safari/537.36" etag="KB_L8NoncSBQ8f_r39BE" version="21.6.9" type="device">
  <diagram name="PÃ¡gina-1" id="smn4Mxm4GKI0tLoRUrN-">
    <mxGraphModel dx="800" dy="398" grid="1" gridSize="10" guides="1" tooltips="1" connect="1" arrows="1" fold="1" page="1" pageScale="1" pageWidth="827" pageHeight="1169" math="0" shadow="0">
      <root>
        <mxCell id="0" />
        <mxCell id="1" parent="0" />
        <mxCell id="UhjYh_yz_O3h1IsPREHd-22" value="" style="edgeStyle=orthogonalEdgeStyle;rounded=0;orthogonalLoop=1;jettySize=auto;html=1;" edge="1" parent="1" source="UhjYh_yz_O3h1IsPREHd-2" target="UhjYh_yz_O3h1IsPREHd-21">
          <mxGeometry relative="1" as="geometry">
            <Array as="points">
              <mxPoint x="480" y="60" />
            </Array>
          </mxGeometry>
        </mxCell>
        <mxCell id="UhjYh_yz_O3h1IsPREHd-27" style="edgeStyle=orthogonalEdgeStyle;rounded=0;orthogonalLoop=1;jettySize=auto;html=1;exitX=0;exitY=0.5;exitDx=0;exitDy=0;entryX=0.5;entryY=0;entryDx=0;entryDy=0;" edge="1" parent="1" source="UhjYh_yz_O3h1IsPREHd-2" target="UhjYh_yz_O3h1IsPREHd-7">
          <mxGeometry relative="1" as="geometry" />
        </mxCell>
        <mxCell id="UhjYh_yz_O3h1IsPREHd-2" value="Produtos&lt;br&gt;" style="ellipse;whiteSpace=wrap;html=1;aspect=fixed;" vertex="1" parent="1">
          <mxGeometry x="374" y="20" width="80" height="80" as="geometry" />
        </mxCell>
        <mxCell id="UhjYh_yz_O3h1IsPREHd-7" value="Faixa Etaria" style="ellipse;whiteSpace=wrap;html=1;aspect=fixed;" vertex="1" parent="1">
          <mxGeometry x="294" y="160" width="80" height="80" as="geometry" />
        </mxCell>
        <mxCell id="UhjYh_yz_O3h1IsPREHd-21" value="Franquia" style="ellipse;whiteSpace=wrap;html=1;aspect=fixed;" vertex="1" parent="1">
          <mxGeometry x="440" y="160" width="80" height="80" as="geometry" />
        </mxCell>
        <mxCell id="UhjYh_yz_O3h1IsPREHd-23" value=":Tem" style="text;html=1;strokeColor=none;fillColor=none;align=center;verticalAlign=middle;whiteSpace=wrap;rounded=0;" vertex="1" parent="1">
          <mxGeometry x="420" y="110" width="60" height="30" as="geometry" />
        </mxCell>
        <mxCell id="UhjYh_yz_O3h1IsPREHd-26" value="Marvel = 35%off&lt;br&gt;Dc = 30% off" style="text;html=1;strokeColor=none;fillColor=none;align=center;verticalAlign=middle;whiteSpace=wrap;rounded=0;" vertex="1" parent="1">
          <mxGeometry x="526" y="185" width="150" height="30" as="geometry" />
        </mxCell>
        <mxCell id="UhjYh_yz_O3h1IsPREHd-28" value=":Recomendado" style="text;html=1;strokeColor=none;fillColor=none;align=center;verticalAlign=middle;whiteSpace=wrap;rounded=0;" vertex="1" parent="1">
          <mxGeometry x="260" y="90" width="60" height="30" as="geometry" />
        </mxCell>
      </root>
    </mxGraphModel>
  </diagram>
</mxfile>
